<svg width="10" height="10" viewBox="0 0 10 10" fill="none" xmlns="http://www.w3.org/2000/svg">
<path fill-rule="evenodd" clip-rule="evenodd" d="M1.0097 1.00982C0.758648 1.26087 0.758648 1.66791 1.0097 1.91896L4.09084 5.0001L1.0097 8.08125C0.758648 8.3323 0.758648 8.73933 1.0097 8.99039C1.26075 9.24144 1.66779 9.24144 1.91884 8.99039L4.99998 5.90924L8.08113 8.99039C8.33218 9.24144 8.73921 9.24144 8.99026 8.99039C9.24131 8.73933 9.24131 8.3323 8.99026 8.08125L5.90912 5.0001L8.99026 1.91896C9.24131 1.66791 9.24131 1.26087 8.99026 1.00982C8.73921 0.75877 8.33218 0.75877 8.08113 1.00982L4.99998 4.09097L1.91884 1.00982C1.66779 0.75877 1.26075 0.75877 1.0097 1.00982Z" fill="#020202"/>
</svg>
